<?xml version="1.0" encoding="utf-8"?>
<!-- Generator: Adobe Illustrator 26.2.1, SVG Export Plug-In . SVG Version: 6.00 Build 0)  -->
<svg version="1.1" id="Layer_1" xmlns="http://www.w3.org/2000/svg" xmlns:xlink="http://www.w3.org/1999/xlink" x="0px" y="0px"
	 viewBox="0 0 90.7 38.6" style="enable-background:new 0 0 90.7 38.6;" xml:space="preserve">
<style type="text/css">
	.st0{fill:#098040;}
</style>
<g>
	<path class="st0" d="M0,7.6C0,3,3.1,0,7.9,0c2.2,0,4.3,0.5,5.8,0.1c0.5,0.9,0.6,2.1,0.6,2.7c0,1.6-0.9,2.7-2.5,2.7
		c-1.4,0-2.7-0.7-4.1-1.7C7.2,4.4,6.9,5.7,6.9,7.2c0,2,0.5,2.8,0.9,2.8c0.4,0,0.6-0.4,0.7-1.4l0.1-1.9c0.6-0.3,1.8-0.5,2.9-0.5
		c2.2,0,3.2,0.5,3.2,1.9c0,1-0.2,2.8-0.2,3.9c0,0.8,0.1,1.4,0.2,2.2c-0.5,0.3-1.4,0.5-2.4,0.5c-2,0-3.3-0.5-2.7-3.1H9.1
		c-0.4,3-2.4,3.2-3.7,3.2C2.3,14.7,0,12.2,0,7.6z"/>
	<path class="st0" d="M15.8,14.4L16,9.6c0.1-2.2-0.1-3.9-0.7-5.8c1-0.6,2.1-0.9,3.5-0.9c2.6,0,3.2,1.3,2.9,3.8h0.5
		c0-2.7,1-3.9,2.5-3.9c0.8,0,1.5,0.3,2.2,0.2c0.4,0.7,0.8,1.9,0.8,3.1c0,1.8-0.9,3.6-2.6,3.6c-1,0-1.8-0.3-2.3-1.1h-0.2l0.1,5.8
		H15.8z"/>
	<path class="st0" d="M27.8,9c0-4.5,3.9-6.2,7.1-6.2c3.6,0,5.7,1.7,5.7,4.7c0,0.4-0.1,0.9-0.1,1.4l-5.9,0.2c0.3,0.8,1,1.1,2.3,1.1
		c0.9,0,1.8-0.1,3-0.8c0.3,0.1,0.6,0.8,0.6,1.6c0,1.6-1.2,3.8-5.6,3.8C30,14.8,27.8,12.3,27.8,9z M34.3,7.9l1.5-0.2
		c0.2-0.8,0-1.8-0.6-1.8C34.8,5.9,34.3,6.6,34.3,7.9L34.3,7.9z"/>
	<path class="st0" d="M41.2,9c0-4.5,3.9-6.2,7.1-6.2c3.6,0,5.7,1.7,5.7,4.7c0,0.4-0.1,0.9-0.1,1.4L48,9.1c0.3,0.8,1,1.1,2.3,1.1
		c0.9,0,1.8-0.1,3-0.8c0.3,0.1,0.6,0.8,0.6,1.6c0,1.6-1.2,3.8-5.6,3.8C43.4,14.8,41.2,12.3,41.2,9z M47.7,7.9l1.5-0.2
		c0.2-0.8,0-1.8-0.6-1.8C48.1,5.9,47.7,6.6,47.7,7.9L47.7,7.9z"/>
	<path class="st0" d="M62.4,10.2c0-0.7,0.1-1.5,0.3-2.4c-0.1-0.1-0.2-0.1-0.3-0.1c-0.5,0-0.9,0.5-0.9,2v4.6h-6.8l0.2-5
		c0.1-2.6-0.3-4.2-0.6-5.4c1-0.7,2.2-1.1,3.5-1.1c2.2,0,3.5,1,3.4,3.1h0.4c0.6-1.9,2.1-3.1,4.3-3.1c2.4,0,3.6,1.6,3.4,4.1l-0.2,1.8
		c-0.1,0.6,0.2,0.8,0.7,0.8c0.2,0,0.5-0.1,0.7-0.2c0.2,0.5,0.3,1,0.3,1.4c0,2.2-1.8,3.9-4.5,3.9C63.7,14.6,62.4,13.2,62.4,10.2z"/>
	<path class="st0" d="M2.5,33.1l0.8-2.9c-1.6,0-2.3,0.1-2.9,0.4c-0.2-0.7-0.3-1.4-0.3-2c0-3.4,2.2-4.5,5.1-4.5
		c2.2,0,3.7,0.3,5.1,0.3s2.3-0.2,2.8-0.5c0.6,0.8,0.8,2,0.8,2.8c0,2.3-1.1,3.7-4.1,3.6c-0.2,2.1-0.4,5.1,0,7.9
		c-1.1,0.4-2.3,0.5-3.3,0.5C2.6,38.6,1.7,36,2.5,33.1z"/>
	<path class="st0" d="M22.3,34.2c0-0.7,0.1-1.5,0.3-2.4c-0.1-0.1-0.2-0.1-0.3-0.1c-0.5,0-0.9,0.5-0.9,2v4.6h-6.8l0.2-6.4
		c0.1-4-0.2-5.6-0.6-6.8c1-0.7,2.2-1.1,3.7-1.1c2.4,0,3.6,1,3.6,3.6c0,0.7-0.1,1.4-0.4,2.3h0.4c0.6-1.9,2.1-3.1,4.3-3.1
		c2.4,0,3.6,1.6,3.4,4.1L29,32.6c-0.1,0.6,0.2,0.8,0.7,0.8c0.2,0,0.5-0.1,0.7-0.2c0.2,0.5,0.3,1,0.3,1.4c0,2.2-1.8,3.9-4.5,3.9
		C23.6,38.6,22.3,37.2,22.3,34.2z"/>
	<path class="st0" d="M31.3,34.5l0.2-1.8c0.2-1.8-0.2-3.6-0.6-4.8c1-0.7,2.1-1.1,3.5-1.1c2.6,0,3.9,1.5,3.9,4.5
		c0,1.1-0.1,1.5-0.3,2.4c0.1,0.1,0.2,0.1,0.3,0.1c0.5,0,0.9-0.7,0.9-2.4l-0.1-3.9c1-0.5,2.2-0.7,3.5-0.7c2.3,0,3.4,0.9,3.8,2.4
		c-0.2,0.5-0.6,0.9-0.7,1l-0.1,2.4c0,0.6,0.2,0.8,0.7,0.8c0.2,0,0.5-0.1,0.7-0.2c0.2,0.5,0.3,1,0.3,1.4c0,2.2-1.8,3.9-4.5,3.9
		c-2.1,0-3.4-1-3.1-3.1h-0.4c-0.8,1.9-2.3,3.1-4.3,3.1C32.3,38.6,31.1,37.1,31.3,34.5z"/>
	<path class="st0" d="M63.4,34.2c0-0.7,0.1-1.5,0.3-2.4c-0.1-0.1-0.2-0.1-0.3-0.1c-0.5,0-0.9,0.5-0.9,2v4.6h-6.7l0.1-6.6
		c-0.1-0.1-0.3-0.1-0.4-0.1c-0.5,0-0.9,0.5-0.9,2v4.6h-6.8l0.2-5c0.1-2.6-0.3-4.2-0.6-5.4c1-0.7,2.2-1.1,3.5-1.1
		c2.2,0,3.5,1,3.4,3.1h0.4c0.6-1.9,2.1-3.1,4.4-3.1c2.2,0,3.2,1.4,3.3,3.1h0.4c0.4-1.9,2-3.1,4.1-3.1c2.3,0,3.6,1.6,3.3,4.1
		l-0.1,1.9c-0.1,0.6,0.2,0.8,0.7,0.8c0.2,0,0.5-0.1,0.7-0.2c0.2,0.5,0.3,1,0.3,1.4c0,2.2-1.8,3.9-4.4,3.9
		C64.7,38.6,63.4,37.2,63.4,34.2z"/>
</g>
<path class="st0" d="M74.7,28.6L74.7,28.6c0,0.3,0,0.6-0.1,0.7c0,0-0.1,0.1-0.2,0c-0.1,0-0.1-0.1-0.2-0.3c0-0.2,0-0.3,0-0.4
	c0-0.7,0.1-1.5,0.3-2.2c0-0.2,0.1-0.5,0.1-0.7c-0.1-0.1-0.3-0.2-0.6-0.2c-0.2,0-0.4,0.1-0.6,0.2c-0.1,0.1-0.2,0.4-0.4,1.3
	c-0.3,1.2-0.3,2.6-0.3,4.1c0,1.4,0.2,2.9,0.4,4.1v0.1c0.2,0.9,0.5,2,1,2.5c0.1,0.1,0.3,0.2,0.5,0.2s0.3-0.1,0.5-0.3
	c0.1-0.1,0.1-0.1,0.2-0.2c-0.1-0.1-0.2-0.5-0.2-0.7c0-0.1,0.1-0.1,0.2-0.1s0.1,0,0.2,0c0.1,0.1,0.2,0.2,0.2,0.4c0,0.1,0,0.2,0.1,0.2
	c0.4-0.1,0.5,0.2,0.7-0.2c0.3-0.9-0.7-0.5-0.5-0.5c0.6,0-0.5,0.6,0.1,0.7c0.1,0,0,0,0.2,0.1c0.6,0.1,1.5,0.1,2.1,0.2
	s1.2,0.1,1.8,0.2c0.4,0.1,0.8,0.1,1.3,0.2c1.4,0.2,2.8,0.4,4.4,0.4c0.3,0,0.6,0,0.8,0c0.8,0,0.8,0,0.9-0.1c0,0,0.1-0.1,0.2-0.1
	c0.3-0.1,0.7-0.4,0.8-1.1c0.1-0.5,0.1-1.1,0-1.7c-0.5,0.1-1.3,0.1-1.8,0c0,0,0,0.1-0.1,0.2c0,0.1-0.1,0.2-0.2,0.2l0,0
	c0,0-0.1,0-0.2-0.1s-0.1-0.4-0.1-0.7c0-0.3,0.1-0.5,0.2-0.7c0.1-0.1,0.2-0.1,0.2-0.1c0.1,0,0.2,0.1,0.2,0.2s0,0.2,0,0.3
	c0,0.1,0,0.1,0,0.2c0.5,0.1,1,0.1,1.5,0s0.9-0.2,1.1-0.5c0.2-0.2,0.3-0.5,0.4-0.9s0.1-0.8,0.1-1.2c0-0.3,0-0.6,0.1-0.8
	c-1,0.3-1.9,0.4-2.8,0.4V32c0,0.1-0.1,0.3-0.2,0.3l0,0c-0.1,0-0.1,0-0.2-0.1s-0.1-0.4-0.1-0.6s0.1-0.5,0.2-0.6s0.1-0.1,0.2-0.1
	s0.1,0,0.1,0.1c0.1,0.1,0.1,0.3,0,0.5c0.4-0.1,0.8-0.1,1.2-0.1c0.4,0,0.8,0,1.1-0.1c0.4-0.1,0.6-0.2,0.8-0.5
	c0.1-0.2,0.2-0.4,0.3-0.7c0.1-0.3,0.1-0.6,0.1-0.9c0-0.7-0.2-1.3-0.4-1.6c-0.5,0.2-1.3,0.6-2.1,0.6c-0.4,0-0.6,0-0.7-0.1
	c-0.1,0-0.1,0-0.2,0c0,0.1,0,0.2,0,0.3c0,0.2,0,0.3-0.1,0.4c0,0-0.1,0.1-0.2,0.1s-0.1,0-0.2-0.1s-0.1-0.3-0.1-0.5v-0.1
	c0-0.1,0-0.3,0-0.4c0-0.3,0-0.6,0.1-0.7c0,0,0.1-0.1,0.2-0.1l0,0c0.1,0,0.1,0,0.2,0.1s0.1,0.3,0.1,0.6c0.5,0.1,1,0.1,1.5,0l0,0
	c0.4-0.1,0.8-0.2,1.2-0.4c0.2-0.1,0.3-0.2,0.4-0.4c0.1-0.2,0.1-0.3,0.2-0.6c0-0.4-0.1-0.9-0.2-1.3c-0.2-0.4-0.4-0.8-0.6-1
	c-0.1-0.1-0.4-0.2-0.7-0.3c-0.3,0-0.6-0.1-0.9-0.1c-0.7,0-1.4,0.1-1.9,0.1c-0.1,0-0.2,0-0.3,0c-0.6,0.1-1.1,0.1-1.8,0.3
	c-0.2,0-0.4,0.1-0.6,0.1c-0.4,0-0.8,0.1-1.1,0.2c-0.1,0-0.6-0.3-0.7-0.2c-0.2,0.1,0.2,0.3,0.4,0.5c0.1,0,0.1,0,0,0l0,0
	c0-0.1-0.3-0.3-0.2-0.4c0.1-0.1-0.3,0.2-0.2,0.1c0.1,0,0.2-0.1,0.2-0.1c0.5-1.1,0.8-2.8,0.6-4.4c-0.1-0.8-0.2-1.5-0.5-2.1
	c-0.1-0.3-0.3-0.7-0.4-0.9c-0.2-0.3-0.4-0.5-0.6-0.7c-0.4-0.3-1-0.5-1.6-0.3c-0.3,0.1-0.6,0.2-0.9,0.4c-0.3,0.2-0.5,0.4-0.6,0.7
	c-0.2,0.5-0.1,1.3,0,1.9l0,0c0.1,0.4,0.1,0.7,0.2,1.1c0.2,1,0.4,2,0.4,3.1c0,0.5-0.2,1-0.4,1.5c-0.2,0.4-0.5,0.8-0.9,1.1
	c0,0,0,0-0.1,0c-0.3,0.2-0.6,0.4-0.8,0.4c-0.1,0-0.2,0-0.2-0.1c0,0,0,0-0.1,0c-0.2,0-0.4-0.1-0.7-0.2c-0.1,0-0.3,0-0.4,0 M74.6,33
	L74.6,33L74.6,33c-0.3,0-0.4-0.4-0.4-0.7c0-0.2,0-0.3,0-0.5s0.1-0.3,0.2-0.3h0.1c0.2,0.1,0.2,0.7,0.2,0.7
	C74.8,32.6,74.8,32.9,74.6,33z"/>
</svg>
